<svg version="1.1" id="Layer_1" xmlns="http://www.w3.org/2000/svg" xmlns:xlink="http://www.w3.org/1999/xlink" x="0px" y="0px"
	 width="100%" viewBox="0 0 180 180" enable-background="new 0 0 180 180" xml:space="preserve">
<path fill="#5501AA" opacity="1.000000" stroke="none" 
	d="
M0.999999,172.000000 
	C1.000000,118.312439 1.000000,64.624878 1.331376,10.646651 
	C4.441835,7.237325 7.220917,4.118662 10.000000,1.000000 
	C63.687561,1.000000 117.375122,1.000000 171.353348,1.331377 
	C174.762680,4.441836 177.881332,7.220918 181.000000,10.000000 
	C181.000000,63.687561 181.000000,117.375122 180.668640,171.353363 
	C177.558182,174.762680 174.779099,177.881348 172.000000,181.000000 
	C118.312439,181.000000 64.624878,181.000000 10.646649,180.668625 
	C7.237322,177.558167 4.118660,174.779083 0.999999,172.000000 
M105.068054,164.796249 
	C113.807487,165.576431 118.673866,159.684021 122.388016,153.462265 
	C131.570953,138.079514 134.662079,121.167175 131.774841,103.499031 
	C130.420868,95.213455 126.544754,88.028320 117.913651,84.714348 
	C113.658806,83.080673 110.747787,84.858765 108.806541,88.455803 
	C106.905548,91.978249 107.956184,94.777008 111.472870,96.774536 
	C115.743515,99.200317 117.844299,103.165726 118.043579,107.880585 
	C118.275215,113.361000 118.471931,118.930305 117.771172,124.342865 
	C116.635246,133.116562 114.055550,141.485992 106.926277,149.065903 
	C105.465775,143.823044 103.612984,139.484787 103.108696,134.995056 
	C99.147102,99.724747 99.728897,64.514015 105.610840,29.480225 
	C106.353821,25.054901 105.251472,22.713360 101.383842,20.727631 
	C88.399429,14.061121 78.492531,17.917372 70.818634,28.379599 
	C64.674629,36.756046 59.411850,46.040333 55.312077,55.588974 
	C50.109558,67.705978 46.741283,80.387199 51.806515,93.844208 
	C56.030296,105.065697 66.839218,112.185677 78.286484,99.836723 
	C80.669998,97.265465 83.003647,94.647964 86.073471,91.266106 
	C86.073471,95.119537 85.879387,97.772552 86.105820,100.389183 
	C87.323959,114.465858 88.017128,128.630249 90.159676,142.569427 
	C91.534286,151.512512 94.258209,160.670883 105.068054,164.796249 
z"/>
<path fill="#000000" opacity="1.000000" stroke="none" 
	d="
M9.508951,1.000000 
	C7.220917,4.118662 4.441835,7.237325 1.331376,10.177994 
	C1.000000,7.082645 1.000000,4.165290 1.000000,1.000000 
	C3.670005,1.000000 6.343954,1.000000 9.508951,1.000000 
z"/>
<path fill="#000000" opacity="1.000000" stroke="none" 
	d="
M181.000000,9.508951 
	C177.881332,7.220918 174.762680,4.441836 171.822006,1.331377 
	C174.917358,1.000000 177.834702,1.000000 181.000000,1.000000 
	C181.000000,3.670005 181.000000,6.343954 181.000000,9.508951 
z"/>
<path fill="#000000" opacity="1.000000" stroke="none" 
	d="
M0.999999,172.491058 
	C4.118660,174.779083 7.237322,177.558167 10.177992,180.668625 
	C7.082646,181.000000 4.165292,181.000000 1.000000,181.000000 
	C1.000000,178.330002 1.000000,175.656052 0.999999,172.491058 
z"/>
<path fill="#000000" opacity="1.000000" stroke="none" 
	d="
M172.491058,181.000000 
	C174.779099,177.881348 177.558182,174.762680 180.668640,171.822021 
	C181.000000,174.917358 181.000000,177.834702 181.000000,181.000000 
	C178.330002,181.000000 175.656052,181.000000 172.491058,181.000000 
z"/>
<path fill="#FCFAFD" opacity="1.000000" stroke="none" 
	d="
M104.698120,164.651764 
	C94.258209,160.670883 91.534286,151.512512 90.159676,142.569427 
	C88.017128,128.630249 87.323959,114.465858 86.105820,100.389183 
	C85.879387,97.772552 86.073471,95.119537 86.073471,91.266106 
	C83.003647,94.647964 80.669998,97.265465 78.286484,99.836723 
	C66.839218,112.185677 56.030296,105.065697 51.806515,93.844208 
	C46.741283,80.387199 50.109558,67.705978 55.312077,55.588974 
	C59.411850,46.040333 64.674629,36.756046 70.818634,28.379599 
	C78.492531,17.917372 88.399429,14.061121 101.383842,20.727631 
	C105.251472,22.713360 106.353821,25.054901 105.610840,29.480225 
	C99.728897,64.514015 99.147102,99.724747 103.108696,134.995056 
	C103.612984,139.484787 105.465775,143.823044 106.926277,149.065903 
	C114.055550,141.485992 116.635246,133.116562 117.771172,124.342865 
	C118.471931,118.930305 118.275215,113.361000 118.043579,107.880585 
	C117.844299,103.165726 115.743515,99.200317 111.472870,96.774536 
	C107.956184,94.777008 106.905548,91.978249 108.806541,88.455803 
	C110.747787,84.858765 113.658806,83.080673 117.913651,84.714348 
	C126.544754,88.028320 130.420868,95.213455 131.774841,103.499031 
	C134.662079,121.167175 131.570953,138.079514 122.388016,153.462265 
	C118.673866,159.684021 113.807487,165.576431 104.698120,164.651764 
M68.006508,90.653320 
	C69.782509,88.295151 72.174065,86.181786 73.226372,83.535789 
	C77.444908,72.928436 81.449150,62.224346 85.127350,51.418072 
	C87.231354,45.236675 88.555061,38.789688 90.230095,32.462276 
	C89.720619,32.102650 89.211151,31.743023 88.701675,31.383396 
	C86.807884,32.713100 84.448517,33.681808 83.093536,35.429302 
	C71.666306,50.166809 63.953423,66.432877 63.993713,85.512947 
	C63.997486,87.300224 66.133354,89.083000 68.006508,90.653320 
z"/>
<path fill="#5907AC" opacity="1.000000" stroke="none" 
	d="
M67.642899,90.760590 
	C66.133354,89.083000 63.997486,87.300224 63.993713,85.512947 
	C63.953423,66.432877 71.666306,50.166809 83.093536,35.429302 
	C84.448517,33.681808 86.807884,32.713100 88.701675,31.383396 
	C89.211151,31.743023 89.720619,32.102650 90.230095,32.462276 
	C88.555061,38.789688 87.231354,45.236675 85.127350,51.418072 
	C81.449150,62.224346 77.444908,72.928436 73.226372,83.535789 
	C72.174065,86.181786 69.782509,88.295151 67.642899,90.760590 
z"/>
</svg>